<svg width="320" height="160" viewBox="0 0 320 160" xmlns="http://www.w3.org/2000/svg">
  <defs>
    <linearGradient id="body" x1="0%" y1="0%" x2="100%" y2="0%">
      <stop offset="0%" stop-color="#ff8f70" />
      <stop offset="100%" stop-color="#ff3d68" />
    </linearGradient>
    <linearGradient id="window" x1="0%" y1="0%" x2="100%" y2="100%">
      <stop offset="0%" stop-color="#c8d9ff" />
      <stop offset="100%" stop-color="#8fb5ff" />
    </linearGradient>
  </defs>
  <rect width="320" height="160" rx="24" fill="#f5f6fb" />
  <g transform="translate(30 50)">
    <path d="M30 60 h170 c25 0 55-12 70-30 l0 50 H0 l0-20 c0-17 14-30 30-30 z" fill="url(#body)" />
    <path d="M55 20 h90 c20 0 38 12 48 30 H35 c4-18 11-30 20-30 z" fill="url(#window)" />
    <circle cx="70" cy="70" r="22" fill="#1f2937" />
    <circle cx="190" cy="70" r="22" fill="#1f2937" />
    <circle cx="70" cy="70" r="12" fill="#f5f6fb" />
    <circle cx="190" cy="70" r="12" fill="#f5f6fb" />
  </g>
</svg>
